<?xml version="1.0" encoding="UTF-8" standalone="no"?>
<!DOCTYPE svg PUBLIC "-//W3C//DTD SVG 1.1//EN" "http://www.w3.org/Graphics/SVG/1.1/DTD/svg11.dtd">
<svg width="100%" height="100%" viewBox="0 0 1747 134" version="1.1" xmlns="http://www.w3.org/2000/svg" xmlns:xlink="http://www.w3.org/1999/xlink" xml:space="preserve" xmlns:serif="http://www.serif.com/" style="fill-rule:evenodd;clip-rule:evenodd;stroke-linejoin:round;stroke-miterlimit:2;">
    <g transform="matrix(1.5625,0,0,1.5625,-8.88178e-14,-4.44089e-14)">
        <g transform="matrix(1,0,0,1,-378.155,-236.302)">
            <path d="M381.782,284.387L381.782,279.527L394.315,279.527C396.965,279.527 399.286,278.993 401.275,277.926C403.265,276.858 404.813,275.365 405.92,273.447C407.026,271.528 407.58,269.292 407.58,266.739C407.58,262.925 406.331,259.933 403.833,257.763C401.336,255.593 398.023,254.508 393.896,254.508L381.782,254.508L381.782,249.649L394.315,249.649C397.977,249.649 401.204,250.345 403.996,251.739C406.788,253.132 408.967,255.101 410.532,257.647C412.098,260.193 412.881,263.193 412.881,266.646C412.881,269.979 412.14,272.983 410.657,275.659C409.175,278.334 407.082,280.458 404.376,282.03C401.671,283.601 398.48,284.387 394.803,284.387L381.782,284.387ZM378.155,309.626L378.155,249.649L383.456,249.649L383.456,309.626L378.155,309.626Z" style="fill:rgb(103,103,103);fill-rule:nonzero;"/>
            <path d="M423.675,309.626L423.675,249.649L428.977,249.649L428.977,304.767L455.542,304.767L455.542,309.626L423.675,309.626Z" style="fill:rgb(103,103,103);fill-rule:nonzero;"/>
            <path d="M462.838,309.626L487.659,249.649L496.003,249.649L520.824,309.626L510.286,309.626L503.532,292.855L502.499,289.118L491.994,262.15L491.668,262.15L481.163,289.118L480.13,292.855L473.375,309.626L462.838,309.626ZM475.47,295.561L475.47,286.964L508.192,286.964L508.192,295.561L475.47,295.561Z" style="fill:rgb(42,42,42);fill-rule:nonzero;"/>
            <path d="M527.419,321.833L527.419,241.999L544.594,241.999L544.594,248.679L535.062,248.679L535.062,315.068L544.594,315.068L544.594,321.833L527.419,321.833Z" style="fill:rgb(42,42,42);fill-rule:nonzero;"/>
            <path d="M554.125,309.626L554.125,249.649L564.111,249.649L564.111,274.619L592.003,274.619L592.003,249.649L601.988,249.649L601.988,309.626L592.003,309.626L592.003,283.613L564.111,283.613L564.111,309.626L554.125,309.626Z" style="fill:rgb(42,42,42);fill-rule:nonzero;"/>
            <path d="M628.695,321.833L611.52,321.833L611.52,315.068L621.052,315.068L621.052,248.679L611.52,248.679L611.52,241.999L628.695,241.999L628.695,321.833Z" style="fill:rgb(42,42,42);fill-rule:nonzero;"/>
            <path d="M641.411,309.626L641.411,249.649L648.707,249.649L675.039,284.391L680.088,291.538L680.442,291.538L680.194,277.442L680.194,249.649L690.179,249.649L690.179,309.626L682.908,309.626L656.739,274.551L651.531,267.425L651.205,267.425L651.397,281.515L651.397,309.626L641.411,309.626Z" style="fill:rgb(42,42,42);fill-rule:nonzero;"/>
            <path d="M725.293,310.277C720.763,310.277 716.815,309.342 713.45,307.471C710.084,305.601 707.471,302.97 705.61,299.579C703.748,296.188 702.818,292.208 702.818,287.639L702.818,249.649L712.803,249.649L712.803,288.121C712.803,290.774 713.327,293.087 714.375,295.061C715.423,297.034 716.886,298.564 718.766,299.652C720.645,300.739 722.821,301.283 725.293,301.283C729.132,301.283 732.174,300.076 734.417,297.662C736.661,295.249 737.783,292.068 737.783,288.121L737.783,249.649L747.768,249.649L747.768,287.639C747.768,292.206 746.853,296.185 745.023,299.575C743.192,302.965 740.596,305.596 737.233,307.468C733.87,309.341 729.89,310.277 725.293,310.277Z" style="fill:rgb(42,42,42);fill-rule:nonzero;"/>
            <path d="M760.407,309.626L760.407,249.649L767.703,249.649L794.035,284.391L799.084,291.538L799.437,291.538L799.19,277.442L799.19,249.649L809.175,249.649L809.175,309.626L801.904,309.626L775.735,274.551L770.526,267.425L770.201,267.425L770.392,281.515L770.392,309.626L760.407,309.626Z" style="fill:rgb(42,42,42);fill-rule:nonzero;"/>
            <path d="M848.376,310.277C844.091,310.277 840.121,309.528 836.468,308.031C832.815,306.534 829.633,304.42 826.922,301.689C824.211,298.958 822.102,295.728 820.596,291.999C819.089,288.27 818.336,284.183 818.336,279.739C818.336,275.345 819.08,271.283 820.57,267.552C822.06,263.822 824.172,260.568 826.906,257.791C829.641,255.014 832.885,252.854 836.637,251.312C840.39,249.769 844.521,248.998 849.03,248.998C852.6,248.998 855.983,249.466 859.179,250.403C862.374,251.339 865.237,252.648 867.765,254.33L863.926,263.431C862.341,261.837 860.247,260.551 857.643,259.573C855.04,258.594 852.169,258.105 849.03,258.105C845.041,258.105 841.487,259.002 838.369,260.796C835.251,262.59 832.797,265.094 831.006,268.306C829.216,271.519 828.321,275.247 828.321,279.491C828.321,282.703 828.83,285.642 829.847,288.306C830.865,290.971 832.287,293.271 834.111,295.206C835.936,297.141 838.069,298.638 840.511,299.696C842.953,300.754 845.603,301.283 848.46,301.283C851.866,301.283 854.823,300.546 857.331,299.072C859.838,297.598 861.777,295.609 863.148,293.103C864.518,290.597 865.204,287.81 865.204,284.741L846.613,284.741L846.613,276.115L874.849,276.115L874.849,283.329C874.849,288.511 873.767,293.133 871.603,297.195C869.44,301.258 866.373,304.454 862.405,306.783C858.436,309.112 853.76,310.277 848.376,310.277Z" style="fill:rgb(42,42,42);fill-rule:nonzero;"/>
            <path d="M901.192,310.277C898.07,310.277 895.252,309.653 892.74,308.405C890.228,307.157 888.105,305.559 886.372,303.611C884.639,301.662 883.367,299.624 882.557,297.496L887.561,295.398C888.221,297.276 889.218,298.97 890.55,300.48C891.882,301.99 893.468,303.19 895.308,304.079C897.149,304.968 899.152,305.413 901.319,305.413C903.523,305.413 905.562,304.936 907.436,303.984C909.311,303.031 910.821,301.705 911.967,300.005C913.112,298.305 913.685,296.334 913.685,294.091C913.685,291.93 913.175,290.09 912.156,288.569C911.137,287.048 909.874,285.784 908.365,284.778C906.857,283.771 905.327,282.954 903.776,282.325C902.226,281.697 900.918,281.184 899.855,280.786C897.103,279.761 894.553,278.514 892.207,277.047C889.86,275.579 887.967,273.758 886.526,271.583C885.085,269.408 884.365,266.763 884.365,263.646C884.365,260.717 885.029,258.155 886.357,255.962C887.684,253.77 889.544,252.061 891.936,250.836C894.327,249.61 897.111,248.998 900.288,248.998C903.248,248.998 905.824,249.489 908.015,250.472C910.206,251.454 912.035,252.718 913.501,254.262C914.968,255.807 916.091,257.423 916.872,259.111L912.193,261.01C911.632,259.955 910.826,258.876 909.774,257.771C908.722,256.666 907.412,255.741 905.845,254.995C904.278,254.249 902.439,253.876 900.329,253.876C897.285,253.876 894.729,254.752 892.661,256.505C890.593,258.258 889.559,260.656 889.559,263.7C889.559,265.566 889.942,267.185 890.708,268.558C891.474,269.931 892.457,271.099 893.658,272.062C894.859,273.025 896.144,273.843 897.514,274.517C898.884,275.191 900.186,275.761 901.419,276.228C902.73,276.695 904.359,277.316 906.308,278.091C908.257,278.866 910.193,279.91 912.116,281.224C914.039,282.538 915.647,284.219 916.942,286.267C918.236,288.315 918.884,290.85 918.884,293.87C918.884,297.213 918.05,300.112 916.383,302.569C914.717,305.025 912.542,306.924 909.86,308.265C907.177,309.606 904.288,310.277 901.192,310.277Z" style="fill:rgb(103,103,103);fill-rule:nonzero;"/>
            <path d="M936.101,309.626L936.101,304.767L949.843,304.767C954.098,304.767 957.464,303.724 959.94,301.639C962.416,299.554 963.654,296.687 963.654,293.036C963.654,289.397 962.37,286.546 959.8,284.482C957.231,282.419 953.711,281.387 949.239,281.387L934.916,281.387L934.916,276.621L947.204,276.621C949.556,276.621 951.629,276.143 953.421,275.188C955.213,274.232 956.613,272.911 957.621,271.223C958.628,269.536 959.132,267.599 959.132,265.413C959.132,261.972 958.007,259.294 955.758,257.38C953.508,255.465 950.564,254.508 946.925,254.508L934.916,254.508L934.916,249.649L946.739,249.649C950.281,249.649 953.378,250.29 956.031,251.573C958.684,252.856 960.747,254.639 962.222,256.924C963.696,259.208 964.433,261.852 964.433,264.855C964.433,266.99 964.036,268.993 963.242,270.863C962.447,272.733 961.362,274.366 959.986,275.763C958.611,277.16 957.043,278.205 955.284,278.899L955.284,277.667C958.121,278.248 960.563,279.245 962.611,280.658C964.659,282.07 966.229,283.836 967.32,285.956C968.411,288.076 968.956,290.498 968.956,293.222C968.956,296.497 968.16,299.366 966.567,301.828C964.974,304.291 962.728,306.206 959.829,307.574C956.931,308.942 953.509,309.626 949.564,309.626L936.101,309.626ZM931.405,309.626L931.405,249.649L936.613,249.649L936.613,309.626L931.405,309.626Z" style="fill:rgb(103,103,103);fill-rule:nonzero;"/>
            <path d="M1002.08,310.277C997.933,310.277 994.305,309.416 991.199,307.693C988.093,305.971 985.678,303.536 983.956,300.389C982.233,297.243 981.372,293.553 981.372,289.322L981.372,249.649L986.662,249.649L986.662,289.037C986.662,292.346 987.306,295.229 988.595,297.683C989.883,300.138 991.68,302.044 993.986,303.4C996.292,304.757 998.991,305.435 1002.08,305.435C1006.8,305.435 1010.55,303.936 1013.31,300.939C1016.08,297.941 1017.46,293.974 1017.46,289.037L1017.46,249.649L1022.75,249.649L1022.75,289.322C1022.75,293.553 1021.91,297.243 1020.23,300.389C1018.55,303.536 1016.15,305.971 1013.05,307.693C1009.94,309.416 1006.29,310.277 1002.08,310.277ZM1010.71,244.969C1009.49,244.969 1008.46,244.549 1007.62,243.708C1006.78,242.867 1006.36,241.85 1006.36,240.656C1006.36,239.436 1006.78,238.405 1007.62,237.564C1008.46,236.723 1009.49,236.302 1010.71,236.302C1011.9,236.302 1012.92,236.723 1013.76,237.564C1014.6,238.405 1015.02,239.436 1015.02,240.656C1015.02,241.85 1014.6,242.867 1013.76,243.708C1012.92,244.549 1011.9,244.969 1010.71,244.969ZM993.783,244.969C992.562,244.969 991.524,244.549 990.67,243.708C989.815,242.867 989.388,241.85 989.388,240.656C989.388,239.436 989.815,238.405 990.67,237.564C991.524,236.723 992.562,236.302 993.783,236.302C994.976,236.302 995.987,236.723 996.814,237.564C997.641,238.405 998.055,239.436 998.055,240.656C998.055,241.85 997.641,242.867 996.814,243.708C995.987,244.549 994.976,244.969 993.783,244.969Z" style="fill:rgb(103,103,103);fill-rule:nonzero;"/>
            <path d="M1041.17,284.108L1041.17,279.434L1054.03,279.434C1056.68,279.434 1059.01,278.908 1061.02,277.856C1063.02,276.803 1064.59,275.326 1065.71,273.423C1066.83,271.521 1067.39,269.292 1067.39,266.739C1067.39,262.925 1066.13,259.933 1063.6,257.763C1061.07,255.593 1057.74,254.508 1053.62,254.508L1041.17,254.508L1041.17,249.649L1054.4,249.649C1057.88,249.649 1061,250.322 1063.76,251.669C1066.52,253.015 1068.7,254.938 1070.3,257.438C1071.89,259.938 1072.69,262.914 1072.69,266.367C1072.69,269.622 1071.93,272.591 1070.41,275.275C1068.89,277.959 1066.73,280.102 1063.93,281.704C1061.13,283.306 1057.82,284.108 1054,284.108L1041.17,284.108ZM1037.87,309.626L1037.87,249.649L1043.17,249.649L1043.17,309.626L1037.87,309.626ZM1070.96,309.626L1053.95,283.352L1057.94,280.074L1077.05,309.626L1070.96,309.626Z" style="fill:rgb(103,103,103);fill-rule:nonzero;"/>
            <path d="M1112.21,310.277C1108.09,310.277 1104.26,309.512 1100.73,307.981C1097.2,306.45 1094.12,304.301 1091.49,301.534C1088.85,298.767 1086.81,295.519 1085.35,291.789C1083.89,288.059 1083.16,283.995 1083.16,279.597C1083.16,275.229 1083.88,271.187 1085.34,267.471C1086.79,263.755 1088.82,260.513 1091.44,257.746C1094.06,254.979 1097.12,252.829 1100.65,251.297C1104.17,249.764 1107.99,248.998 1112.12,248.998C1116.29,248.998 1120.15,249.764 1123.69,251.297C1127.24,252.829 1130.33,254.979 1132.97,257.746C1135.61,260.513 1137.67,263.759 1139.13,267.483C1140.59,271.207 1141.32,275.26 1141.32,279.643C1141.32,284.026 1140.59,288.079 1139.13,291.801C1137.67,295.523 1135.61,298.767 1132.97,301.534C1130.33,304.301 1127.24,306.45 1123.72,307.981C1120.19,309.512 1116.36,310.277 1112.21,310.277ZM1112.12,305.418C1115.53,305.418 1118.69,304.774 1121.61,303.485C1124.52,302.196 1127.05,300.389 1129.2,298.061C1131.35,295.734 1133.02,293.002 1134.22,289.865C1135.42,286.728 1136.02,283.305 1136.02,279.597C1136.02,275.865 1135.41,272.43 1134.2,269.293C1132.99,266.156 1131.3,263.432 1129.13,261.121C1126.96,258.809 1124.43,257.021 1121.52,255.755C1118.62,254.49 1115.48,253.857 1112.12,253.857C1108.8,253.857 1105.71,254.49 1102.85,255.755C1099.99,257.021 1097.47,258.809 1095.32,261.121C1093.16,263.432 1091.47,266.156 1090.27,269.293C1089.06,272.43 1088.46,275.865 1088.46,279.597C1088.46,283.321 1089.05,286.755 1090.24,289.9C1091.44,293.045 1093.1,295.777 1095.25,298.096C1097.39,300.415 1099.9,302.216 1102.77,303.496C1105.64,304.777 1108.76,305.418 1112.12,305.418Z" style="fill:rgb(103,103,103);fill-rule:nonzero;"/>
            <path d="M1188.53,310.277C1185.41,310.277 1182.59,309.653 1180.08,308.405C1177.57,307.157 1175.44,305.559 1173.71,303.611C1171.98,301.662 1170.7,299.624 1169.89,297.496L1174.9,295.398C1175.56,297.276 1176.56,298.97 1177.89,300.48C1179.22,301.99 1180.81,303.19 1182.65,304.079C1184.49,304.968 1186.49,305.413 1188.66,305.413C1190.86,305.413 1192.9,304.936 1194.77,303.984C1196.65,303.031 1198.16,301.705 1199.3,300.005C1200.45,298.305 1201.02,296.334 1201.02,294.091C1201.02,291.93 1200.51,290.09 1199.49,288.569C1198.48,287.048 1197.21,285.784 1195.7,284.778C1194.19,283.771 1192.66,282.954 1191.11,282.325C1189.56,281.697 1188.26,281.184 1187.19,280.786C1184.44,279.761 1181.89,278.514 1179.55,277.047C1177.2,275.579 1175.31,273.758 1173.86,271.583C1172.42,269.408 1171.7,266.763 1171.7,263.646C1171.7,260.717 1172.37,258.155 1173.69,255.962C1175.02,253.77 1176.88,252.061 1179.27,250.836C1181.66,249.61 1184.45,248.998 1187.63,248.998C1190.59,248.998 1193.16,249.489 1195.35,250.472C1197.54,251.454 1199.37,252.718 1200.84,254.262C1202.31,255.807 1203.43,257.423 1204.21,259.111L1199.53,261.01C1198.97,259.955 1198.16,258.876 1197.11,257.771C1196.06,256.666 1194.75,255.741 1193.18,254.995C1191.62,254.249 1189.78,253.876 1187.67,253.876C1184.62,253.876 1182.07,254.752 1180,256.505C1177.93,258.258 1176.9,260.656 1176.9,263.7C1176.9,265.566 1177.28,267.185 1178.05,268.558C1178.81,269.931 1179.8,271.099 1181,272.062C1182.2,273.025 1183.48,273.843 1184.85,274.517C1186.22,275.191 1187.52,275.761 1188.76,276.228C1190.07,276.695 1191.7,277.316 1193.65,278.091C1195.6,278.866 1197.53,279.91 1199.45,281.224C1201.38,282.538 1202.99,284.219 1204.28,286.267C1205.57,288.315 1206.22,290.85 1206.22,293.87C1206.22,297.213 1205.39,300.112 1203.72,302.569C1202.05,305.025 1199.88,306.924 1197.2,308.265C1194.52,309.606 1191.63,310.277 1188.53,310.277Z" style="fill:rgb(103,103,103);fill-rule:nonzero;"/>
            <path d="M1218.74,309.626L1218.74,249.649L1250.82,249.649L1250.82,254.508L1224.04,254.508L1224.04,276.574L1246.78,276.574L1246.78,281.434L1224.04,281.434L1224.04,304.767L1250.82,304.767L1250.82,309.626L1218.74,309.626Z" style="fill:rgb(103,103,103);fill-rule:nonzero;"/>
            <path d="M1284.28,310.277C1280.13,310.277 1276.5,309.414 1273.39,307.688C1270.29,305.961 1267.88,303.529 1266.15,300.392C1264.42,297.255 1263.56,293.567 1263.56,289.327L1263.56,249.649L1268.86,249.649L1268.86,289.048C1268.86,292.346 1269.5,295.223 1270.79,297.678C1272.07,300.133 1273.87,302.036 1276.19,303.389C1278.5,304.742 1281.2,305.418 1284.28,305.418C1288.99,305.418 1292.74,303.925 1295.5,300.939C1298.27,297.953 1299.66,293.989 1299.66,289.048L1299.66,249.649L1304.96,249.649L1304.96,289.327C1304.96,293.567 1304.12,297.255 1302.43,300.392C1300.75,303.529 1298.35,305.961 1295.25,307.688C1292.16,309.414 1288.5,310.277 1284.28,310.277Z" style="fill:rgb(103,103,103);fill-rule:nonzero;"/>
            <path d="M1324.77,309.626L1324.77,304.767L1338.51,304.767C1342.77,304.767 1346.13,303.724 1348.61,301.639C1351.08,299.554 1352.32,296.687 1352.32,293.036C1352.32,289.397 1351.04,286.546 1348.47,284.482C1345.9,282.419 1342.38,281.387 1337.91,281.387L1323.58,281.387L1323.58,276.621L1335.87,276.621C1338.22,276.621 1340.3,276.143 1342.09,275.188C1343.88,274.232 1345.28,272.911 1346.29,271.223C1347.3,269.536 1347.8,267.599 1347.8,265.413C1347.8,261.972 1346.67,259.294 1344.42,257.38C1342.18,255.465 1339.23,254.508 1335.59,254.508L1323.58,254.508L1323.58,249.649L1335.41,249.649C1338.95,249.649 1342.05,250.29 1344.7,251.573C1347.35,252.856 1349.41,254.639 1350.89,256.924C1352.36,259.208 1353.1,261.852 1353.1,264.855C1353.1,266.99 1352.7,268.993 1351.91,270.863C1351.12,272.733 1350.03,274.366 1348.65,275.763C1347.28,277.16 1345.71,278.205 1343.95,278.899L1343.95,277.667C1346.79,278.248 1349.23,279.245 1351.28,280.658C1353.33,282.07 1354.9,283.836 1355.99,285.956C1357.08,288.076 1357.62,290.498 1357.62,293.222C1357.62,296.497 1356.83,299.366 1355.24,301.828C1353.64,304.291 1351.4,306.206 1348.5,307.574C1345.6,308.942 1342.18,309.626 1338.23,309.626L1324.77,309.626ZM1320.07,309.626L1320.07,249.649L1325.28,249.649L1325.28,309.626L1320.07,309.626Z" style="fill:rgb(103,103,103);fill-rule:nonzero;"/>
            <path d="M1370.03,309.626L1370.03,249.649L1402.1,249.649L1402.1,254.508L1375.33,254.508L1375.33,276.574L1398.07,276.574L1398.07,281.434L1375.33,281.434L1375.33,304.767L1402.1,304.767L1402.1,309.626L1370.03,309.626Z" style="fill:rgb(103,103,103);fill-rule:nonzero;"/>
            <path d="M1418.15,284.108L1418.15,279.434L1431.01,279.434C1433.66,279.434 1435.98,278.908 1437.99,277.856C1440,276.803 1441.56,275.326 1442.68,273.423C1443.8,271.521 1444.36,269.292 1444.36,266.739C1444.36,262.925 1443.1,259.933 1440.57,257.763C1438.04,255.593 1434.71,254.508 1430.59,254.508L1418.15,254.508L1418.15,249.649L1431.38,249.649C1434.85,249.649 1437.97,250.322 1440.73,251.669C1443.49,253.015 1445.67,254.938 1447.27,257.438C1448.87,259.938 1449.66,262.914 1449.66,266.367C1449.66,269.622 1448.9,272.591 1447.38,275.275C1445.86,277.959 1443.7,280.102 1440.9,281.704C1438.1,283.306 1434.79,284.108 1430.97,284.108L1418.15,284.108ZM1414.85,309.626L1414.85,249.649L1420.15,249.649L1420.15,309.626L1414.85,309.626ZM1447.93,309.626L1430.92,283.352L1434.91,280.074L1454.02,309.626L1447.93,309.626Z" style="fill:rgb(103,103,103);fill-rule:nonzero;"/>
            <path d="M1473.9,309.626L1473.9,253.404L1479.2,253.404L1479.2,309.626L1473.9,309.626ZM1457.42,254.508L1457.42,249.649L1495.61,249.649L1495.61,254.508L1457.42,254.508Z" style="fill:rgb(103,103,103);fill-rule:nonzero;"/>
        </g>
    </g>
</svg>
